<?xml version="1.0" encoding="UTF-8"?>
<svg width="180px" height="180px" viewBox="0 0 180 180" version="1.1" xmlns="http://www.w3.org/2000/svg" xmlns:xlink="http://www.w3.org/1999/xlink">
    <title>-mockplus-</title>
    <g id="页面-1" stroke="none" stroke-width="1" fill="none" fill-rule="evenodd">
        <g id="图标" transform="translate(-735.000000, -330.000000)">
            <g id="编组" transform="translate(195.000000, 330.000000)">
                <g id="编组-7" transform="translate(540.000000, 0.000000)">
                    <circle id="椭圆形" fill="#F7931A" cx="90" cy="90" r="90"></circle>
                    <path d="M125.750848,66.5681301 C126.510742,74.140396 123.745265,79.5074341 117.453949,82.6693981 C122.393649,83.8342675 126.08844,85.976625 128.537541,89.0978539 C130.986019,92.2178531 131.936705,96.6702735 131.387728,102.452656 C131.091477,105.406948 130.405997,108.006921 129.329104,110.253807 C128.252367,112.500692 126.890299,114.351909 125.243836,115.808072 C123.596593,117.264236 121.549045,118.48183 119.099944,119.458857 C116.651466,120.43696 114.08583,121.154512 111.404595,121.612129 C108.723204,122.068976 105.65196,122.38133 102.189303,122.547652 L102.189303,138.461538 L92.4354856,138.461538 L92.4354856,122.797442 C89.0576942,122.797442 86.4817617,122.776998 84.7084681,122.734879 L84.7084681,138.461538 L74.955743,138.461538 L74.955743,122.547652 C74.1958492,122.547652 73.0556184,122.536738 71.5352067,122.516447 C70.014795,122.495388 68.8539717,122.484474 68.0519569,122.484474 L55.3846154,122.484474 L57.3480775,111.064511 L64.3785386,111.064511 C66.4902042,111.064511 67.714365,110.003401 68.0519569,107.881334 L68.0519569,64.820826 C67.503604,61.9913524 65.6242279,60.5773074 62.4150765,60.5773074 L55.3846154,60.5773074 L55.3846154,50.34189 L68.8118507,50.404914 C71.5146142,50.404914 73.5626303,50.3840085 74.955743,50.34189 L74.955743,34.6153846 L84.7097161,34.6153846 L84.7097161,50.0303051 C88.1722174,49.9468366 90.7475259,49.9053329 92.4367336,49.9053329 L92.4367336,34.6153846 L102.190551,34.6153846 L102.190551,50.34189 C105.526377,50.6331842 108.481866,51.1015607 111.057799,51.7464046 C113.633107,52.3906336 116.018871,53.3267717 118.214467,54.554204 C120.410687,55.7814826 122.152311,57.4045831 123.439966,59.4219685 C124.726996,61.4401223 125.497966,63.8222787 125.750848,66.5681301 Z M112.133444,100.579765 C112.133444,99.0816362 111.817069,97.7504447 111.183382,96.5855753 C110.550163,95.4207059 109.768897,94.4635085 108.840207,93.7147518 C107.911517,92.965995 106.697653,92.3312964 105.198457,91.8114247 C103.700042,91.2913992 102.316758,90.9064912 101.050476,90.6567006 C99.7835701,90.4075249 98.2216615,90.2201436 96.3636578,90.0951715 C94.5056542,89.9703531 93.04858,89.9079439 91.9930592,89.9079439 C90.9375384,89.9079439 89.5756264,89.9288494 87.9077912,89.9703531 C86.2404241,90.011703 85.2373205,90.0333771 84.8997286,90.0333771 L84.8997286,111.126921 C85.2373205,111.126921 86.0185869,111.137681 87.2429036,111.158125 C88.4676884,111.179184 89.4806202,111.189945 90.283103,111.189945 C91.0857419,111.189945 92.2039761,111.158125 93.6396778,111.096331 C95.0753796,111.034383 96.3106166,110.950914 97.3447649,110.847001 C98.3795372,110.742627 99.5823254,110.566006 100.955314,110.316216 C102.327678,110.06704 103.499577,109.7759 104.470388,109.442026 C105.441043,109.109382 106.444147,108.672825 107.478919,108.13174 C108.513067,107.590809 109.346595,106.96687 109.980438,106.259617 C110.6135,105.55221 111.130965,104.719985 111.531894,103.763403 C111.932355,102.806359 112.133444,101.745403 112.133444,100.579765 Z M107.636639,70.8739043 C107.636639,69.500748 107.372836,68.2836147 106.845076,67.2231193 C106.317316,66.1621628 105.673176,65.2879728 104.913283,64.6016252 C104.153389,63.9146628 103.139989,63.332843 101.873083,62.8543211 C100.606801,62.3756456 99.4459782,62.0328561 98.3898334,61.8239543 C97.3343126,61.6161286 96.0363621,61.4491917 94.4945779,61.3248344 C92.9534177,61.200016 91.728633,61.1477521 90.8217837,61.1688114 C89.9138423,61.1892558 88.7736116,61.2095465 87.4012473,61.2312206 C86.0290391,61.251665 85.1947315,61.2624252 84.8997286,61.2624252 L84.8997286,80.4212832 C85.1106455,80.4212832 85.8394947,80.4320434 87.0844039,80.4531027 C88.3300931,80.4735471 89.3118242,80.4735471 90.0295971,80.4531027 C90.7475259,80.4320434 91.8028907,80.3900786 93.1966274,80.3281306 C94.5897402,80.2657213 95.7505634,80.1516631 96.6798773,79.9847262 C97.6085671,79.8184041 98.6957566,79.5896728 99.9412898,79.2977638 C101.187603,79.0066233 102.211299,78.6223301 103.013314,78.1431934 C103.815797,77.6645179 104.596439,77.1031425 105.356333,76.4589134 C106.116227,75.8139158 106.686732,75.0122803 107.066289,74.0558515 C107.446002,73.099269 107.636639,72.0389274 107.636639,70.8739043 Z" id="Fill-1" fill="#FFFFFF" transform="translate(93.461538, 86.538462) rotate(-345.000000) translate(-93.461538, -86.538462) "></path>
                </g>
            </g>
        </g>
    </g>
</svg>