<?xml version="1.0" encoding="UTF-8"?>
<svg width="180px" height="180px" viewBox="0 0 180 180" version="1.1" xmlns="http://www.w3.org/2000/svg" xmlns:xlink="http://www.w3.org/1999/xlink">
    <title>-mockplus-</title>
    <g id="页面-1" stroke="none" stroke-width="1" fill="none" fill-rule="evenodd">
        <g id="图标" transform="translate(-195.000000, -1140.000000)">
            <g id="编组" transform="translate(195.000000, 330.000000)">
                <g id="BitTorrent--The-Worlds-Most-Popular-Torrent-Client" transform="translate(0.000000, 810.000000)">
                    <circle id="椭圆形" fill="#000000" cx="90" cy="90" r="90"></circle>
                    <path d="M89.9514317,141.84 C61.3451981,141.84 38.1549773,118.630426 38.1549773,90 C38.1549773,61.3695744 61.3451981,38.16 89.9514317,38.16 C118.557665,38.16 141.747886,61.3695744 141.747886,90 C141.747886,118.630426 118.557665,141.84 89.9514317,141.84 M89.9514317,32.4 C58.1665997,32.4 32.4000461,58.1884416 32.4000461,90 C32.4000461,105.904512 38.8406477,120.30359 49.2540365,130.727117 L49.2533453,130.726426 L49.2563405,130.72919 L49.2579533,130.730803 C59.6724941,141.153638 74.0598221,147.6 89.9514317,147.6 C121.736264,147.6 147.502817,121.811558 147.502817,90 C147.502817,58.1884416 121.736264,32.4 89.9514317,32.4" id="Fill-1" fill="#FFFFFF" fill-rule="nonzero"></path>
                    <path d="M57.1275483,116.492368 C52.6990743,107.040715 52.2950491,95.4440724 56.2700253,85.756342 C58.5533177,80.1916779 62.1971031,75.1973819 66.7982727,71.3530445 C73.2296949,65.9790411 81.5992474,62.7993647 89.976358,62.8291051 C89.9841454,61.1073951 89.9919328,59.3854547 89.999491,57.6637449 C90.0006362,57.3923935 89.999491,56.6574161 89.999491,56.6574161 C89.999491,56.6574161 89.2422873,56.6463499 88.9266712,56.6578771 C78.247945,57.0511869 67.7817673,61.4781115 60.1396436,69.0196988 C53.2357134,75.8332249 48.9068714,85.185282 47.8148123,94.8338198 C46.6373215,105.238545 49.5305454,116.137789 56.0155628,124.361329 C56.0510639,124.406054 56.0863359,124.451011 56.121837,124.495506 C58.7727373,127.826189 61.9069105,130.852323 65.6386469,132.883193 C72.4342416,136.580904 79.2000612,138.263191 85.9065597,138.505263 C73.6799862,136.250764 62.4330136,127.816276 57.1275483,116.492368" id="Fill-4" fill="#FFFFFF" fill-rule="nonzero"></path>
                    <path d="M122.434551,123.914481 C121.179179,124.023718 119.921653,124.112215 118.66317,124.180431 C108.081525,124.754734 96.386174,124.512061 87.044347,119.052258 C84.4725806,117.549205 82.1568661,115.655524 80.2228366,113.4339 C73.4984823,105.708456 73.7356296,94.0661311 82.3384955,87.711226 C89.8381845,82.1714541 101.114041,83.2230382 107.151363,90.3029671 C107.687157,90.9314287 108.861406,92.3655746 108.861406,92.3655746 C108.861406,92.3655746 110.833963,91.3637697 111.463325,91.0644035 L111.659551,90.9710676 L111.790688,90.9086132 L112.127624,90.7484443 L112.293699,90.6693968 L113.78574,89.9593529 L114.610131,89.5671118 C114.602473,89.5544366 114.594576,89.5419918 114.58668,89.5293165 C112.852466,86.7280881 110.514497,84.279462 107.767802,82.3742579 C102.60656,78.7945393 95.8702412,77.2122082 89.591226,78.1292045 C79.3125362,79.6301835 70.8034761,87.2556086 69.1104225,97.1780181 C67.3606545,107.431136 72.6929956,117.262053 81.4535609,122.979279 C90.5508224,128.916362 102.008787,129.742326 112.812024,129.315517 C115.341195,129.215497 120.506026,128.798367 120.490232,128.712866 C122.642264,127.011849 124.617932,125.229019 126.378947,123.345708 C126.378947,123.345708 122.965321,123.868159 122.434551,123.914481" id="Fill-6" fill="#FFFFFF" fill-rule="nonzero"></path>
                    <path d="M104.496983,134.103381 C103.249454,134.074119 102.002388,133.999928 100.760168,133.881037 C90.4965059,132.899264 80.0218836,129.022174 73.2464543,120.958323 C66.9661125,113.483167 64.3284151,102.879058 67.3965733,93.4855169 C69.8611631,85.9398556 75.796213,79.7022257 83.1844431,76.798152 C89.4513979,74.3346199 96.6469017,74.3214866 102.92332,76.7617474 C102.93209,76.7652035 104.141074,74.1201093 104.258325,73.8710372 L104.278636,73.8279508 L104.322029,73.7357872 C104.322029,73.7357872 104.409044,73.5503081 104.409044,73.5503081 C104.797728,72.7238314 105.170948,71.8851429 105.580636,71.070417 C96.9619574,67.9951493 87.6730064,67.8407754 79.232744,71.6754708 C70.6770766,75.5626994 63.9134186,83.1952249 61.1455443,92.1751814 C58.0275312,102.289902 59.9677206,113.617034 66.3099194,122.092395 C69.996187,127.018999 75.0809327,130.820976 80.5455916,133.638646 C89.1935831,138.098211 101.64394,138.664786 102.536251,138.473777 C106.831165,137.45514 112.991255,134.515813 114.252632,133.548557 C112.399458,133.917672 109.205277,134.033337 107.316558,134.092321 C106.377161,134.121583 105.43661,134.12527 104.496983,134.103381" id="Fill-8" fill="#FFFFFF" fill-rule="nonzero"></path>
                </g>
            </g>
        </g>
    </g>
</svg>