<?xml version="1.0" encoding="UTF-8"?>
<svg width="180px" height="180px" viewBox="0 0 180 180" version="1.1" xmlns="http://www.w3.org/2000/svg" xmlns:xlink="http://www.w3.org/1999/xlink">
    <title>-mockplus-</title>
    <g id="页面-1" stroke="none" stroke-width="1" fill="none" fill-rule="evenodd">
        <g id="图标" transform="translate(-1545.000000, -1410.000000)">
            <g id="编组" transform="translate(195.000000, 330.000000)">
                <g id="编组" transform="translate(1350.000000, 1080.000000)">
                    <circle id="椭圆形" fill="#F9A606" fill-rule="nonzero" cx="90" cy="90" r="90"></circle>
                    <path d="M64.05354,55.8 L92.98494,55.8 C110.583,55.8 123.92262,65.25882 128.8854,79.0227 L137.898,79.0227 L137.898,87.34194 L130.78314,87.34194 C130.92246,88.65648 130.99356,89.99568 130.99356,91.3563 L130.99356,91.56078 C130.99356,93.09276 130.90356,94.59864 130.72752,96.07356 L137.898,96.07356 L137.898,104.3928 L128.71386,104.3928 C123.6204,117.96516 110.3841,127.3338 92.98494,127.3338 L64.05354,127.3338 L64.05354,104.3928 L54,104.3928 L54,96.07356 L64.05354,96.07356 L64.05354,87.34194 L54,87.34194 L54,79.0227 L64.05354,79.0227 L64.05354,55.8 Z M72.14148,104.3928 L72.14148,119.871 L92.98494,119.871 C105.8472,119.871 115.40322,113.6718 119.85174,104.3928 L72.14148,104.3928 Z M122.32944,96.07356 L72.14148,96.07356 L72.14148,87.34194 L122.3424,87.34194 C122.52852,88.71588 122.62338,90.12456 122.62338,91.56078 L122.62338,91.76508 C122.62338,93.23442 122.5242,94.6728 122.32944,96.07356 Z M92.98494,63.25056 C105.90642,63.25056 115.49124,69.61338 119.91276,79.0227 L72.14148,79.0227 L72.14148,63.25056 L92.98494,63.25056 Z" id="形状" fill="#FFFFFF"></path>
                </g>
            </g>
        </g>
    </g>
</svg>