<?xml version="1.0" encoding="UTF-8"?>
<svg width="180px" height="180px" viewBox="0 0 180 180" version="1.1" xmlns="http://www.w3.org/2000/svg" xmlns:xlink="http://www.w3.org/1999/xlink">
    <title>-mockplus-</title>
    <defs>
        <polygon id="path-1" points="0 0 180 0 180 180 0 180"></polygon>
    </defs>
    <g id="页面-1" stroke="none" stroke-width="1" fill="none" fill-rule="evenodd">
        <g id="图标" transform="translate(-1545.000000, -600.000000)">
            <g id="编组" transform="translate(195.000000, 330.000000)">
                <g id="编组-4" transform="translate(1350.000000, 270.000000)">
                    <circle id="椭圆形" fill="#0090FF" cx="90" cy="90" r="90"></circle>
                    <g id="Filecoin">
                        <g id="Clipped">
                            <mask id="mask-2" fill="white">
                                <use xlink:href="#path-1"></use>
                            </mask>
                            <g id="a-logo_1"></g>
                            <path d="M90,180 C40.5,180 0,139.5 0,89.55 C0.45,40.05 40.5,-0.45 90.45,-2.16840434e-18 C139.95,0.45 180,40.5 180,90.9 C179.55,139.95 139.5,180 90,180" id="路径" fill="#0090FF" mask="url(#mask-2)"></path>
                        </g>
                        <path d="M97.7538462,79.4984931 L95.0953846,93.8468704 L120.350769,97.4339648 L118.578462,104.159767 L93.7661538,100.572672 C91.9938462,106.401701 91.1076923,112.679116 88.8923077,118.059757 C86.6769231,124.337172 84.4615385,130.614587 81.8030769,136.443616 C78.2584615,144.066191 72.0553846,149.446833 63.6369231,150.791993 C58.7630769,151.688766 53.4461538,151.24038 49.4584615,148.101672 C48.1292308,147.204899 46.8,145.411351 46.8,144.066191 C46.8,142.272644 47.6861538,140.03071 49.0153846,139.133936 C49.9015385,138.68555 52.1169231,139.133936 53.4461538,139.582323 C54.7753846,140.927484 56.1046154,142.721031 56.9907692,144.514578 C59.6492308,148.101672 63.1938462,148.550059 66.7384615,145.859738 C70.7261538,142.272644 72.9415385,137.340389 74.2707692,132.408134 C76.9292308,121.646851 79.5876923,111.333955 81.8030769,100.572672 L81.8030769,98.7791251 L58.32,95.1920308 L59.2061538,88.4662289 L83.5753846,92.0533233 L86.6769231,78.1533327 L61.4215385,74.1178516 L62.3076923,66.943663 L88.4492308,70.5307573 C89.3353846,67.8404365 89.7784615,65.5985026 90.6646154,63.3565686 C92.88,55.2856064 95.0953846,47.2146441 100.412308,40.0404555 C105.729231,32.8662668 111.932308,28.3823989 121.236923,28.8307857 C125.224615,28.8307857 129.212308,30.1759461 131.870769,33.3146536 C132.313846,33.7630404 133.2,34.659814 133.2,35.5565876 C133.2,37.3501347 133.2,39.5920687 131.870769,40.9372291 C130.098462,42.2823894 127.883077,41.8340027 126.110769,40.0404555 C124.781538,38.6952951 123.895385,37.3501347 122.566154,36.0049744 C119.907692,32.41788 115.92,31.9694932 112.818462,35.1082008 C110.603077,37.3501347 108.387692,40.4888423 107.058462,43.6275498 C103.956923,53.0436724 101.741538,62.9081818 98.64,72.7726912 L123.009231,76.3597856 L121.236923,83.0855874 L97.7538462,79.4984931" id="路径" fill="#FFFFFF"></path>
                    </g>
                </g>
            </g>
        </g>
    </g>
</svg>