<?xml version="1.0" encoding="UTF-8"?>
<svg width="180px" height="180px" viewBox="0 0 180 180" version="1.1" xmlns="http://www.w3.org/2000/svg" xmlns:xlink="http://www.w3.org/1999/xlink">
    <title>-mockplus-</title>
    <g id="页面-1" stroke="none" stroke-width="1" fill="none" fill-rule="evenodd">
        <g id="图标" transform="translate(-1005.000000, -1140.000000)">
            <g id="编组" transform="translate(195.000000, 330.000000)">
                <g id="IOTA" transform="translate(810.000000, 810.000000)">
                    <circle id="椭圆形" fill="#000000" cx="90" cy="90" r="90"></circle>
                    <path d="M115.223646,49.0870232 C118.846686,49.0870232 121.783983,46.1573659 121.783983,42.5435116 C121.783983,38.9296269 118.846686,36 115.223646,36 C111.600303,36 108.663006,38.9296269 108.663006,42.5435116 C108.663006,46.1573659 111.600303,49.0870232 115.223646,49.0870232 Z" id="路径" fill="#F6F8FC" fill-rule="nonzero"></path>
                    <path d="M122.604025,141.514712 C126.227368,141.514712 129.164665,138.584994 129.164665,134.971048 C129.164665,131.357103 126.227368,128.427688 122.604025,128.427688 C118.980985,128.427688 116.043688,131.357103 116.043688,134.971048 C116.043688,138.584994 118.980985,141.514712 122.604025,141.514712 Z" id="路径" fill="#F6F8FC" fill-rule="nonzero"></path>
                    <path d="M117.100194,65.4454232 C120.141171,65.4454232 122.606147,62.9868126 122.606147,59.9537179 C122.606147,56.9206232 120.141171,54.4617095 117.100194,54.4617095 C114.059217,54.4617095 111.593937,56.9206232 111.593937,59.9537179 C111.593937,62.9868126 114.059217,65.4454232 117.100194,65.4454232 Z" id="路径" fill="#F6F8FC" fill-rule="nonzero"></path>
                    <path d="M131.743023,67.5490358 C134.783697,67.5490358 137.248977,65.0901221 137.248977,62.0570274 C137.248977,59.0242358 134.783697,56.5653221 131.743023,56.5653221 C128.702046,56.5653221 126.236766,59.0242358 126.236766,62.0570274 C126.236766,65.0901221 128.702046,67.5490358 131.743023,67.5490358 Z" id="路径" fill="#F6F8FC" fill-rule="nonzero"></path>
                    <path d="M115.226072,79.3509726 C117.814131,79.3509726 119.912286,77.2582737 119.912286,74.6771874 C119.912286,72.0957979 117.814131,70.0030989 115.226072,70.0030989 C112.638013,70.0030989 110.54016,72.0957979 110.54016,74.6771874 C110.54016,77.2582737 112.638013,79.3509726 115.226072,79.3509726 Z" id="路径" fill="#F6F8FC" fill-rule="nonzero"></path>
                    <path d="M129.868901,81.3375663 C132.45696,81.3375663 134.554813,79.2448674 134.554813,76.6634779 C134.554813,74.0820884 132.45696,71.9896926 129.868901,71.9896926 C127.280842,71.9896926 125.182989,74.0820884 125.182989,76.6634779 C125.182989,79.2448674 127.280842,81.3375663 129.868901,81.3375663 Z" id="路径" fill="#F6F8FC" fill-rule="nonzero"></path>
                    <path d="M141.583832,85.8952421 C144.171587,85.8952421 146.269743,83.8025432 146.269743,81.2211537 C146.269743,78.6400674 144.171587,76.5473684 141.583832,76.5473684 C138.995773,76.5473684 136.897617,78.6400674 136.897617,81.2211537 C136.897617,83.8025432 138.995773,85.8952421 141.583832,85.8952421 Z" id="路径" fill="#F6F8FC" fill-rule="nonzero"></path>
                    <path d="M125.535259,92.5544084 C127.799545,92.5544084 129.635469,90.7233347 129.635469,88.4648084 C129.635469,86.2059789 127.799545,84.3749053 125.535259,84.3749053 C123.270669,84.3749053 121.434745,86.2059789 121.434745,88.4648084 C121.434745,90.7233347 123.270669,92.5544084 125.535259,92.5544084 Z" id="路径" fill="#F6F8FC" fill-rule="nonzero"></path>
                    <path d="M110.889398,90.5678147 C113.153987,90.5678147 114.989608,88.7367411 114.989608,86.4782147 C114.989608,84.2193853 113.153987,82.3886147 110.889398,82.3886147 C108.624808,82.3886147 106.789187,84.2193853 106.789187,86.4782147 C106.789187,88.7367411 108.624808,90.5678147 110.889398,90.5678147 Z" id="路径" fill="#F6F8FC" fill-rule="nonzero"></path>
                    <path d="M137.365389,97.1120842 C139.629979,97.1120842 141.4656,95.2810105 141.4656,93.0224842 C141.4656,90.7636547 139.629979,88.9325811 137.365389,88.9325811 C135.1008,88.9325811 133.265179,90.7636547 133.265179,93.0224842 C133.265179,95.2810105 135.1008,97.1120842 137.365389,97.1120842 Z" id="路径" fill="#F6F8FC" fill-rule="nonzero"></path>
                    <path d="M119.676733,101.084665 C121.617549,101.084665 123.191242,99.5152168 123.191242,97.5792505 C123.191242,95.6429811 121.617549,94.0735326 119.676733,94.0735326 C117.735613,94.0735326 116.162223,95.6429811 116.162223,97.5792505 C116.162223,99.5152168 117.735613,101.084665 119.676733,101.084665 Z" id="路径" fill="#F6F8FC" fill-rule="nonzero"></path>
                    <path d="M131.509895,105.525322 C133.451015,105.525322 135.024404,103.955874 135.024404,102.019907 C135.024404,100.083941 133.451015,98.5144926 131.509895,98.5144926 C129.568775,98.5144926 127.995385,100.083941 127.995385,102.019907 C127.995385,103.955874 129.568775,105.525322 131.509895,105.525322 Z" id="路径" fill="#F6F8FC" fill-rule="nonzero"></path>
                    <path d="M105.149406,98.9795368 C107.090526,98.9795368 108.663916,97.4100884 108.663916,95.4741221 C108.663916,93.5381558 107.090526,91.9687074 105.149406,91.9687074 C103.208286,91.9687074 101.634897,93.5381558 101.634897,95.4741221 C101.634897,97.4100884 103.208286,98.9795368 105.149406,98.9795368 Z" id="路径" fill="#F6F8FC" fill-rule="nonzero"></path>
                    <path d="M113.232202,106.811318 C114.849549,106.811318 116.160707,105.503192 116.160707,103.890088 C116.160707,102.276682 114.849549,100.968859 113.232202,100.968859 C111.614552,100.968859 110.303394,102.276682 110.303394,103.890088 C110.303394,105.503192 111.614552,106.811318 113.232202,106.811318 Z" id="路径" fill="#F6F8FC" fill-rule="nonzero"></path>
                    <path d="M118.271596,114.873196 C119.695225,114.873196 120.849044,113.722408 120.849044,112.30272 C120.849044,110.882728 119.695225,109.731941 118.271596,109.731941 C116.848269,109.731941 115.694451,110.882728 115.694451,112.30272 C115.694451,113.722408 116.848269,114.873196 118.271596,114.873196 Z" id="路径" fill="#F6F8FC" fill-rule="nonzero"></path>
                    <path d="M112.062619,116.509642 C113.227352,116.509642 114.171385,115.568034 114.171385,114.406333 C114.171385,113.244935 113.227352,112.303023 112.062619,112.303023 C110.898189,112.303023 109.953853,113.244935 109.953853,114.406333 C109.953853,115.568034 110.898189,116.509642 112.062619,116.509642 Z" id="路径" fill="#F6F8FC" fill-rule="nonzero"></path>
                    <path d="M106.553937,110.432539 C107.977263,110.432539 109.131385,109.281448 109.131385,107.86176 C109.131385,106.442072 107.977263,105.290981 106.553937,105.290981 C105.130611,105.290981 103.976792,106.442072 103.976792,107.86176 C103.976792,109.281448 105.130611,110.432539 106.553937,110.432539 Z" id="路径" fill="#F6F8FC" fill-rule="nonzero"></path>
                    <path d="M98.5893726,104.824724 C100.20672,104.824724 101.517878,103.516901 101.517878,101.903495 C101.517878,100.290088 100.20672,98.9822653 98.5893726,98.9822653 C96.9717221,98.9822653 95.6605642,100.290088 95.6605642,101.903495 C95.6605642,103.516901 96.9717221,104.824724 98.5893726,104.824724 Z" id="路径" fill="#F6F8FC" fill-rule="nonzero"></path>
                    <path d="M98.4708379,82.8545684 C100.088488,82.8545684 101.399646,81.5467453 101.399646,79.9333389 C101.399646,78.3199326 100.088488,77.0121095 98.4708379,77.0121095 C96.8534905,77.0121095 95.5420295,78.3199326 95.5420295,79.9333389 C95.5420295,81.5467453 96.8534905,82.8545684 98.4708379,82.8545684 Z" id="路径" fill="#F6F8FC" fill-rule="nonzero"></path>
                    <path d="M99.7595621,72.5732716 C101.182888,72.5732716 102.336707,71.4221811 102.336707,70.0024926 C102.336707,68.5828042 101.182888,67.4320168 99.7595621,67.4320168 C98.3362358,67.4320168 97.1821137,68.5828042 97.1821137,70.0024926 C97.1821137,71.4221811 98.3362358,72.5732716 99.7595621,72.5732716 Z" id="路径" fill="#F6F8FC" fill-rule="nonzero"></path>
                    <path d="M102.57408,64.1600337 C103.738813,64.1600337 104.682846,63.2184253 104.682846,62.0570274 C104.682846,60.8953263 103.738813,59.9537179 102.57408,59.9537179 C101.409651,59.9537179 100.465314,60.8953263 100.465314,62.0570274 C100.465314,63.2184253 101.409651,64.1600337 102.57408,64.1600337 Z" id="路径" fill="#F6F8FC" fill-rule="nonzero"></path>
                    <path d="M97.6517053,60.1877558 C99.0750316,60.1877558 100.228851,59.0369684 100.228851,57.61728 C100.228851,56.1975916 99.0750316,55.0465011 97.6517053,55.0465011 C96.2283789,55.0465011 95.0742568,56.1975916 95.0742568,57.61728 C95.0742568,59.0369684 96.2283789,60.1877558 97.6517053,60.1877558 Z" id="路径" fill="#F6F8FC" fill-rule="nonzero"></path>
                    <path d="M124.946829,111.248943 C126.56448,111.248943 127.875638,109.94112 127.875638,108.327714 C127.875638,106.714307 126.56448,105.406484 124.946829,105.406484 C123.329482,105.406484 122.018021,106.714307 122.018021,108.327714 C122.018021,109.94112 123.329482,111.248943 124.946829,111.248943 Z" id="路径" fill="#F6F8FC" fill-rule="nonzero"></path>
                    <path d="M90.9749558,56.7990568 C92.5923032,56.7990568 93.9034611,55.4912337 93.9034611,53.8778274 C93.9034611,52.2644211 92.5923032,50.9565979 90.9749558,50.9565979 C89.3573053,50.9565979 88.0461474,52.2644211 88.0461474,53.8778274 C88.0461474,55.4912337 89.3573053,56.7990568 90.9749558,56.7990568 Z" id="路径" fill="#F6F8FC" fill-rule="nonzero"></path>
                    <path d="M92.9673095,69.1857853 C94.5846568,69.1857853 95.8961179,67.8779621 95.8961179,66.2645558 C95.8961179,64.6511495 94.5846568,63.3433263 92.9673095,63.3433263 C91.3496589,63.3433263 90.0385011,64.6511495 90.0385011,66.2645558 C90.0385011,67.8779621 91.3496589,69.1857853 92.9673095,69.1857853 Z" id="路径" fill="#F6F8FC" fill-rule="nonzero"></path>
                    <path d="M89.6865347,80.9871158 C91.6276547,80.9871158 93.2010442,79.4176674 93.2010442,77.4817011 C93.2010442,75.5457347 91.6276547,73.9762863 89.6865347,73.9762863 C87.7454147,73.9762863 86.1720253,75.5457347 86.1720253,77.4817011 C86.1720253,79.4176674 87.7454147,80.9871158 89.6865347,80.9871158 Z" id="路径" fill="#F6F8FC" fill-rule="nonzero"></path>
                    <path d="M79.0253811,80.9862063 C81.2896674,80.9862063 83.1255916,79.1551326 83.1255916,76.8963032 C83.1255916,74.6377768 81.2896674,72.8067032 79.0253811,72.8067032 C76.7607916,72.8067032 74.9248674,74.6377768 74.9248674,76.8963032 C74.9248674,79.1551326 76.7607916,80.9862063 79.0253811,80.9862063 Z" id="路径" fill="#F6F8FC" fill-rule="nonzero"></path>
                    <path d="M66.6083368,83.7916295 C69.1963958,83.7916295 71.2942484,81.6992337 71.2942484,79.1178442 C71.2942484,76.5364547 69.1963958,74.4440589 66.6083368,74.4440589 C64.0202779,74.4440589 61.9224253,76.5364547 61.9224253,79.1178442 C61.9224253,81.6992337 64.0202779,83.7916295 66.6083368,83.7916295 Z" id="路径" fill="#F6F8FC" fill-rule="nonzero"></path>
                    <path d="M53.0195874,90.4517053 C56.0605642,90.4517053 58.5255411,87.9927916 58.5255411,84.9596968 C58.5255411,81.9266021 56.0605642,79.4679916 53.0195874,79.4679916 C49.9786105,79.4679916 47.5134821,81.9266021 47.5134821,84.9596968 C47.5134821,87.9927916 49.9786105,90.4517053 53.0195874,90.4517053 Z" id="路径" fill="#F6F8FC" fill-rule="nonzero"></path>
                    <path d="M38.9604278,101.668851 C42.5836194,101.668851 45.5208253,98.7394358 45.5208253,95.1254905 C45.5208253,91.5115453 42.5836194,88.5818274 38.9604278,88.5818274 C35.3372059,88.5818274 32.4,91.5115453 32.4,95.1254905 C32.4,98.7394358 35.3372059,101.668851 38.9604278,101.668851 Z" id="路径" fill="#F6F8FC" fill-rule="nonzero"></path>
                    <path d="M47.5129667,76.7798905 C50.5540042,76.7798905 53.0189811,74.32128 53.0189811,71.2881853 C53.0189811,68.2550905 50.5540042,65.7961768 47.5129667,65.7961768 C44.4720505,65.7961768 42.0069221,68.2550905 42.0069221,71.2881853 C42.0069221,74.32128 44.4720505,76.7798905 47.5129667,76.7798905 Z" id="路径" fill="#F6F8FC" fill-rule="nonzero"></path>
                    <path d="M61.1017768,70.1201179 C63.6898358,70.1201179 65.7876884,68.0274189 65.7876884,65.4460295 C65.7876884,62.8649432 63.6898358,60.7722442 61.1017768,60.7722442 C58.5137179,60.7722442 56.4158653,62.8649432 56.4158653,65.4460295 C56.4158653,68.0274189 58.5137179,70.1201179 61.1017768,70.1201179 Z" id="路径" fill="#F6F8FC" fill-rule="nonzero"></path>
                    <path d="M59.1094232,57.7330863 C61.6974821,57.7330863 63.7953347,55.6406905 63.7953347,53.0593011 C63.7953347,50.4779116 61.6974821,48.3852126 59.1094232,48.3852126 C56.5213642,48.3852126 54.4232084,50.4779116 54.4232084,53.0593011 C54.4232084,55.6406905 56.5213642,57.7330863 59.1094232,57.7330863 Z" id="路径" fill="#F6F8FC" fill-rule="nonzero"></path>
                    <path d="M71.5291958,54.9291789 C73.7937853,54.9291789 75.6294063,53.0981053 75.6294063,50.8392758 C75.6294063,48.5807495 73.7937853,46.7496758 71.5291958,46.7496758 C69.2646063,46.7496758 67.4289853,48.5807495 67.4289853,50.8392758 C67.4289853,53.0981053 69.2646063,54.9291789 71.5291958,54.9291789 Z" id="路径" fill="#F6F8FC" fill-rule="nonzero"></path>
                    <path d="M82.1876211,54.9300884 C84.1284379,54.9300884 85.7021305,53.36064 85.7021305,51.4246737 C85.7021305,49.4884042 84.1284379,47.9190771 82.1876211,47.9190771 C80.2465011,47.9190771 78.6731116,49.4884042 78.6731116,51.4246737 C78.6731116,53.36064 80.2465011,54.9300884 82.1876211,54.9300884 Z" id="路径" fill="#F6F8FC" fill-rule="nonzero"></path>
                    <path d="M84.1799747,67.3137853 C86.1210947,67.3137853 87.6944842,65.7443368 87.6944842,63.8083705 C87.6944842,61.8724042 86.1210947,60.3029558 84.1799747,60.3029558 C82.2388547,60.3029558 80.6654653,61.8724042 80.6654653,63.8083705 C80.6654653,65.7443368 82.2388547,67.3137853 84.1799747,67.3137853 Z" id="路径" fill="#F6F8FC" fill-rule="nonzero"></path>
                    <path d="M73.5188211,67.4329263 C75.7831074,67.4329263 77.6190316,65.6018526 77.6190316,63.3430232 C77.6190316,61.0844968 75.7831074,59.2534232 73.5188211,59.2534232 C71.2542316,59.2534232 69.4183074,61.0844968 69.4183074,63.3430232 C69.4183074,65.6018526 71.2542316,67.4329263 73.5188211,67.4329263 Z" id="路径" fill="#F6F8FC" fill-rule="nonzero"></path>
                    <path d="M61.9203032,98.5141895 C63.0847326,98.5141895 64.0287663,97.5725811 64.0287663,96.41088 C64.0287663,95.2491789 63.0847326,94.3075705 61.9203032,94.3075705 C60.7555705,94.3075705 59.8115368,95.2491789 59.8115368,96.41088 C59.8115368,97.5725811 60.7555705,98.5141895 61.9203032,98.5141895 Z" id="路径" fill="#F6F8FC" fill-rule="nonzero"></path>
                    <path d="M70.3556716,97.4622316 C71.7789979,97.4622316 72.9328168,96.3114442 72.9328168,94.8917558 C72.9328168,93.4720674 71.7789979,92.3209768 70.3556716,92.3209768 C68.9320421,92.3209768 67.7782232,93.4720674 67.7782232,94.8917558 C67.7782232,96.3114442 68.9320421,97.4622316 70.3556716,97.4622316 Z" id="路径" fill="#F6F8FC" fill-rule="nonzero"></path>
                    <path d="M79.6092632,93.9580295 C81.2269137,93.9580295 82.5380716,92.6502063 82.5380716,91.0368 C82.5380716,89.4233937 81.2269137,88.1155705 79.6092632,88.1155705 C77.9919158,88.1155705 76.6804547,89.4233937 76.6804547,91.0368 C76.6804547,92.6502063 77.9919158,93.9580295 79.6092632,93.9580295 Z" id="路径" fill="#F6F8FC" fill-rule="nonzero"></path>
                    <path d="M81.83808,103.304994 C83.7792,103.304994 85.3525895,101.735545 85.3525895,99.7995789 C85.3525895,97.8636126 83.7792,96.2941642 81.83808,96.2941642 C79.8972632,96.2941642 78.3235705,97.8636126 78.3235705,99.7995789 C78.3235705,101.735545 79.8972632,103.304994 81.83808,103.304994 Z" id="路径" fill="#F6F8FC" fill-rule="nonzero"></path>
                    <path d="M70.5915284,105.5232 C72.2091789,105.5232 73.5203368,104.215377 73.5203368,102.602274 C73.5203368,100.988867 72.2091789,99.6810442 70.5915284,99.6810442 C68.9741811,99.6810442 67.66272,100.988867 67.66272,102.602274 C67.66272,104.215377 68.9741811,105.5232 70.5915284,105.5232 Z" id="路径" fill="#F6F8FC" fill-rule="nonzero"></path>
                    <path d="M60.6330947,105.407091 C62.0567242,105.407091 63.2105432,104.256 63.2105432,102.836312 C63.2105432,101.416623 62.0567242,100.265533 60.6330947,100.265533 C59.2097684,100.265533 58.0559495,101.416623 58.0559495,102.836312 C58.0559495,104.256 59.2097684,105.407091 60.6330947,105.407091 Z" id="路径" fill="#F6F8FC" fill-rule="nonzero"></path>
                    <path d="M60.7476884,113.470787 C62.3653389,113.470787 63.6764968,112.162964 63.6764968,110.549558 C63.6764968,108.936455 62.3653389,107.628328 60.7476884,107.628328 C59.1303411,107.628328 57.8191832,108.936455 57.8191832,110.549558 C57.8191832,112.162964 59.1303411,113.470787 60.7476884,113.470787 Z" id="路径" fill="#F6F8FC" fill-rule="nonzero"></path>
                    <path d="M72.6990821,114.988699 C74.6402021,114.988699 76.2135916,113.419251 76.2135916,111.483284 C76.2135916,109.547318 74.6402021,107.977869 72.6990821,107.977869 C70.7579621,107.977869 69.1845726,109.547318 69.1845726,111.483284 C69.1845726,113.419251 70.7579621,114.988699 72.6990821,114.988699 Z" id="路径" fill="#F6F8FC" fill-rule="nonzero"></path>
                    <path d="M86.6428295,113.470484 C88.9071158,113.470484 90.74304,111.639411 90.74304,109.380884 C90.74304,107.122055 88.9071158,105.290981 86.6428295,105.290981 C84.37824,105.290981 82.5423158,107.122055 82.5423158,109.380884 C82.5423158,111.639411 84.37824,113.470484 86.6428295,113.470484 Z" id="路径" fill="#F6F8FC" fill-rule="nonzero"></path>
                    <path d="M94.8399158,123.635975 C97.4279747,123.635975 99.5258274,121.543579 99.5258274,118.962189 C99.5258274,116.3808 97.4279747,114.288101 94.8399158,114.288101 C92.2518568,114.288101 90.1540042,116.3808 90.1540042,118.962189 C90.1540042,121.543579 92.2518568,123.635975 94.8399158,123.635975 Z" id="路径" fill="#F6F8FC" fill-rule="nonzero"></path>
                    <path d="M77.6190316,125.038686 C79.8836211,125.038686 81.7192421,123.207613 81.7192421,120.949086 C81.7192421,118.690257 79.8836211,116.859486 77.6190316,116.859486 C75.3544421,116.859486 73.5188211,118.690257 73.5188211,120.949086 C73.5188211,123.207613 75.3544421,125.038686 77.6190316,125.038686 Z" id="路径" fill="#F6F8FC" fill-rule="nonzero"></path>
                    <path d="M67.8967579,132.983242 C70.1610442,132.983242 71.9969684,131.152168 71.9969684,128.893642 C71.9969684,126.634813 70.1610442,124.804042 67.8967579,124.804042 C65.6321684,124.804042 63.7962442,126.634813 63.7962442,128.893642 C63.7962442,131.152168 65.6321684,132.983242 67.8967579,132.983242 Z" id="路径" fill="#F6F8FC" fill-rule="nonzero"></path>
                    <path d="M75.9783411,143.267267 C78.5664,143.267267 80.6645558,141.174568 80.6645558,138.593482 C80.6645558,136.012093 78.5664,133.919394 75.9783411,133.919394 C73.3902821,133.919394 71.2924295,136.012093 71.2924295,138.593482 C71.2924295,141.174568 73.3902821,143.267267 75.9783411,143.267267 Z" id="路径" fill="#F6F8FC" fill-rule="nonzero"></path>
                    <path d="M97.53408,145.137145 C100.575057,145.137145 103.040034,142.678232 103.040034,139.645137 C103.040034,136.612042 100.575057,134.153432 97.53408,134.153432 C94.4931032,134.153432 92.0278232,136.612042 92.0278232,139.645137 C92.0278232,142.678232 94.4931032,145.137145 97.53408,145.137145 Z" id="路径" fill="#F6F8FC" fill-rule="nonzero"></path>
                    <path d="M85.7036463,135.31968 C88.2917053,135.31968 90.3898611,133.226981 90.3898611,130.645895 C90.3898611,128.064505 88.2917053,125.971806 85.7036463,125.971806 C83.1158905,125.971806 81.0177347,128.064505 81.0177347,130.645895 C81.0177347,133.226981 83.1158905,135.31968 85.7036463,135.31968 Z" id="路径" fill="#F6F8FC" fill-rule="nonzero"></path>
                    <path d="M106.557575,133.451924 C109.598552,133.451924 112.063832,130.993011 112.063832,127.959916 C112.063832,124.926821 109.598552,122.468211 106.557575,122.468211 C103.516901,122.468211 101.051621,124.926821 101.051621,127.959916 C101.051621,130.993011 103.516901,133.451924 106.557575,133.451924 Z" id="路径" fill="#F6F8FC" fill-rule="nonzero"></path>
                    <path d="M62.9768084,122.936286 C64.9176253,122.936286 66.4913179,121.366838 66.4913179,119.430872 C66.4913179,117.494905 64.9176253,115.925457 62.9768084,115.925457 C61.0356884,115.925457 59.4622989,117.494905 59.4622989,119.430872 C59.4622989,121.366838 61.0356884,122.936286 62.9768084,122.936286 Z" id="路径" fill="#F6F8FC" fill-rule="nonzero"></path>
                </g>
            </g>
        </g>
    </g>
</svg>