<?xml version="1.0" encoding="UTF-8"?>
<svg width="180px" height="180px" viewBox="0 0 180 180" version="1.1" xmlns="http://www.w3.org/2000/svg" xmlns:xlink="http://www.w3.org/1999/xlink">
    <title>-mockplus-</title>
    <g id="页面-1" stroke="none" stroke-width="1" fill="none" fill-rule="evenodd">
        <g id="图标" transform="translate(-1545.000000, -330.000000)">
            <g id="编组" transform="translate(195.000000, 330.000000)">
                <g id="编组-5" transform="translate(1350.000000, 0.000000)">
                    <circle id="椭圆形" fill="#FFE279" cx="90" cy="90" r="90"></circle>
                    <g id="编组-2备份-2" transform="translate(34.615385, 34.615385)" fill="#000000">
                        <path d="M54.6084649,-5.6196672 C29.2906233,-5.27161321 7.5821435,12.0787849 1.66944368,36.1804429 L1.544,36.704 L1.60049273,36.522898 C-1.24213315,45.7181703 -3.52675037,56.065468 -5.26072544,67.569157 C-6.55230017,76.1934585 -4.38925666,82.78798 1.87045944,85.9596346 L2.20441162,86.124321 C6.10719405,87.996392 10.2413659,88.1454622 14.3773942,86.7280828 L14.59,86.652 L14.7486121,86.9481346 C15.5881658,88.5499125 16.0746162,89.9530744 16.2297229,91.1364503 C16.6708133,94.5017186 17.4132092,97.8266855 18.5016152,100.691525 C20.2009124,105.164317 22.6320107,108.409748 26.4608699,109.752159 L26.9878605,109.930382 C32.4653094,111.712051 36.2702894,110.657067 46.9104608,105.647437 C49.900632,104.239597 53.7428288,103.762303 57.9143342,104.11825 C59.6116354,104.263078 61.2766156,104.541194 62.7599963,104.903435 L63.2261193,105.021816 C63.9772618,105.220027 64.5907299,105.418589 64.9310939,105.554597 L65.1014564,105.628193 C65.3133759,105.730039 67.7325448,107.010341 68.8628067,107.566559 L68.9920276,107.629708 C72.9952376,109.570453 76.5845228,110.662166 80.3702612,110.616188 C80.8214248,110.610708 81.2702774,110.587729 81.7166315,110.546588 L82.0141202,110.515423 C88.8084333,109.717016 92.4033732,103.283997 94.4156203,92.3261884 L94.554,91.547 L94.6189241,91.2810727 C95.0641042,89.4777731 95.5499556,87.9846961 96.044152,86.8017525 L96.117,86.629 L96.3593683,86.7149588 C99.9379792,87.9405729 103.9668,88.1416244 107.445788,86.7053315 C114.214632,83.9108277 117.532085,76.6429978 116.02583,67.7891577 L115.778822,66.4190101 L115.458981,64.5479682 C115.211605,63.0705219 114.834432,60.8002282 114.701625,60.0241513 C114.267121,57.4850641 113.849492,55.2339177 113.359057,52.8509099 C112.089035,46.6799279 110.43711,40.2022415 108.147425,32.7288768 L106.930917,28.7582808 L106.698,28.758 L106.665829,28.6750193 C98.3504994,8.22095993 78.2149426,-5.625 55.3846154,-5.625 L54.6084649,-5.6196672 Z M55.3846154,3.01980663e-14 C77.6004795,3.01980663e-14 96.4088046,14.4493455 102.751219,34.3766292 L102.769187,34.3766578 L103.184528,35.7450917 C108.12806,52.1895133 109.103336,61.205347 110.370396,68.1243772 L110.422642,68.4075542 C111.750928,75.5521623 109.094357,79.9392023 105.299255,81.5060024 C101.504153,83.0728024 96.633773,81.1299704 94.4199637,79.3751543 C92.1429027,81.213533 90.3507713,84.8902904 89.0435697,90.4054265 C87.4411934,99.7644452 84.8267901,104.61108 81.2003596,104.945331 C75.8843422,105.435312 70.4012469,101.97482 67.7204425,100.647366 L67.5379937,100.558291 C64.9298585,99.3048506 53.4328659,96.3592665 44.514377,100.558291 L42.7491026,101.3834 C35.1551569,104.900693 32.1497613,105.786 28.3219433,104.443955 C24.2105832,103.002499 22.4395357,95.2311705 21.8070188,90.4054265 C21.3853408,87.1882638 19.6353773,83.5115064 16.5571282,79.3751543 C12.1716774,82.2998477 8.12356894,82.8221144 4.41280288,80.9419543 C0.702036822,79.0617943 -0.668416552,74.8836609 0.301442759,68.4075542 C1.99526721,57.170236 4.21963904,47.0957967 6.97455825,38.1842362 C12.0169387,16.3167104 31.7768204,3.01980663e-14 55.3846154,3.01980663e-14 Z" id="形状结合备份-2" fill-rule="nonzero"></path>
                        <circle id="椭圆形" cx="39.1511936" cy="36.2864721" r="5.72944297"></circle>
                        <circle id="椭圆形备份" cx="71.6180371" cy="36.2864721" r="5.72944297"></circle>
                        <path d="M43.992949,53.6613186 L50.3789116,54.6696285 C53.3786614,55.1432732 56.4346448,55.1369154 59.4323978,54.6507933 L65.7132915,53.63227 C67.7956129,53.2945963 69.7574066,54.7089126 70.0950803,56.791234 C70.2111377,57.5069213 70.1211024,58.2408584 69.8354966,58.9072718 L68.9920424,60.8753316 C66.8196588,65.9442266 61.8354888,69.2307692 56.3206952,69.2307692 L54.1695325,69.2307692 C48.4876779,69.2307692 43.304706,65.9862062 40.8222812,60.8753316 L39.9614428,59.1030172 C39.039784,57.2054844 39.8308862,54.920078 41.728419,53.9984192 C42.431037,53.6571476 43.221394,53.5394942 43.992949,53.6613186 Z" id="路径-23"></path>
                    </g>
                </g>
            </g>
        </g>
    </g>
</svg>