<?xml version="1.0" encoding="UTF-8"?>
<svg width="180px" height="180px" viewBox="0 0 180 180" version="1.1" xmlns="http://www.w3.org/2000/svg" xmlns:xlink="http://www.w3.org/1999/xlink">
    <title>-mockplus-</title>
    <g id="页面-1" stroke="none" stroke-width="1" fill="none" fill-rule="evenodd">
        <g id="图标" transform="translate(-195.000000, -600.000000)" fill="#345D9D" fill-rule="nonzero">
            <g id="编组" transform="translate(195.000000, 330.000000)">
                <g id="bi/bi_ltc" transform="translate(0.000000, 270.000000)">
                    <path d="M90,-1.84741111e-13 C40.2943725,-1.84741111e-13 -2.84217094e-14,40.2943725 -2.84217094e-14,90 C-2.84217094e-14,139.705627 40.2943725,180 90,180 C139.705627,180 180,139.705627 180,90 C180,66.1305159 170.517884,43.2386638 153.63961,26.3603897 C136.761336,9.48211563 113.869484,-1.84741111e-13 90,-1.84741111e-13 L90,-1.84741111e-13 Z M91.5793934,92.9608128 L82.2180001,124.550073 L132.290569,124.550073 C133.097884,124.552067 133.857302,124.933454 134.341007,125.579821 C134.824713,126.226189 134.976434,127.062341 134.750656,127.837446 L130.39652,142.837446 C129.96966,144.309631 128.620195,145.32173 127.087376,145.319308 L50.6069696,145.319308 L63.5387548,101.647315 L49.2354166,106.001451 L52.3921655,95.7910015 L66.7172744,91.436865 L84.8740233,30.0870827 C85.2842073,28.6096504 86.628083,27.5861689 88.1613963,27.5834378 L107.537303,27.5834378 C108.343367,27.5805712 109.104046,27.9561942 109.591785,28.5979554 C110.079524,29.2397167 110.237761,30.0731955 110.019161,30.8490566 L94.7796837,82.7285922 L109.083022,78.3744557 L106.013356,88.7590711 L91.5793934,92.9608128 Z" id="形状"></path>
                </g>
            </g>
        </g>
    </g>
</svg>