<?xml version="1.0" encoding="UTF-8"?>
<svg width="180px" height="180px" viewBox="0 0 180 180" version="1.1" xmlns="http://www.w3.org/2000/svg" xmlns:xlink="http://www.w3.org/1999/xlink">
    <title>-mockplus-</title>
    <g id="页面-1" stroke="none" stroke-width="1" fill="none" fill-rule="evenodd">
        <g id="图标" transform="translate(-735.000000, -870.000000)">
            <g id="编组" transform="translate(195.000000, 330.000000)">
                <g id="Stellar---an-open-network-for-money" transform="translate(540.000000, 540.000000)">
                    <circle id="椭圆形" fill="#000000" cx="90" cy="90" r="90"></circle>
                    <path d="M128.756812,58.7330081 L115.752581,65.3445341 L52.9566763,97.2622459 C52.7443342,95.6461146 52.6374919,94.0179184 52.6368252,92.3879554 C52.6542962,79.1550254 59.6909013,66.9202719 71.1320276,60.2297995 C82.5731539,53.5393272 96.7087247,53.3931442 108.286343,59.8455683 L115.729734,56.0610396 L116.840074,55.4956401 C102.936936,45.4257917 84.5486082,43.9887176 69.2440143,51.7759398 C53.9394203,59.5631621 44.3052156,75.2585491 44.3069893,92.4016344 C44.3069893,93.5628311 44.3511592,94.7194682 44.4394991,95.8715456 C44.6924864,99.2075464 42.9122167,102.368599 39.9250296,103.887451 L36,105.884588 L36,115.2 L47.5557624,109.322581 L47.5557624,109.322581 L51.29802,107.416638 L54.9854459,105.542612 L54.9854459,105.542612 L121.18548,71.8831053 L128.624302,68.1031363 L144,60.2832969 L144,50.9724444 L128.756812,58.7330081 Z" id="路径" fill="#FFFFFF" fill-rule="nonzero"></path>
                    <path d="M144,68.4 L58.7459807,111.729238 L51.3071586,115.519407 L36,123.304987 L36,132.613931 L51.2020646,124.883083 L64.2062955,118.269673 L127.06617,86.297256 C127.278666,87.9245314 127.385506,89.5638214 127.386021,91.2048623 C127.377793,104.457409 120.333065,116.712717 108.874958,123.407493 C97.4168511,130.102269 83.2622573,130.233363 71.681672,123.751962 L71.2247419,123.993693 L63.1553562,128.098569 C77.0552264,138.171538 95.4402539,139.612448 110.744772,131.828348 C126.049291,124.044247 135.687443,108.350339 135.693011,91.2048623 C135.693011,90.0326924 135.647318,88.8605225 135.560501,87.7020355 C135.307933,84.3664026 137.085878,81.2053801 140.070401,79.6838459 L144,77.6861399 L144,68.4 Z" id="路径" fill="#FFFFFF" fill-rule="nonzero"></path>
                </g>
            </g>
        </g>
    </g>
</svg>