<?xml version="1.0" encoding="UTF-8"?>
<svg width="180px" height="180px" viewBox="0 0 180 180" version="1.1" xmlns="http://www.w3.org/2000/svg" xmlns:xlink="http://www.w3.org/1999/xlink">
    <title>-mockplus-</title>
    <g id="页面-1" stroke="none" stroke-width="1" fill="none" fill-rule="evenodd">
        <g id="图标" transform="translate(-1545.000000, -1140.000000)">
            <g id="编组" transform="translate(195.000000, 330.000000)">
                <g id="Tezos-Logo" transform="translate(1350.000000, 810.000000)">
                    <circle id="椭圆形" fill="#2C7DF7" cx="90" cy="90" r="90"></circle>
                    <path d="M102.412187,149.023455 C94.0479319,149.023455 87.9558128,147.021549 84.1284766,143.017736 C80.304817,139.015762 78.3911489,134.699438 78.3911489,130.074281 C78.3911489,128.383047 78.7238809,126.960204 79.391183,125.803915 C80.0422359,124.663023 80.9875165,123.717742 82.1284085,123.066689 C83.2846979,122.399387 84.7075404,122.066655 86.3987745,122.066655 C88.0900085,122.066655 89.5110128,122.399387 90.6691404,123.066689 C91.8254298,123.733991 92.7372255,124.647626 93.4045277,125.803915 C94.0718298,126.960204 94.4045617,128.383047 94.4045617,130.074281 C94.4045617,132.120306 93.9155745,133.787643 92.9376,135.078128 C91.9577872,136.368613 90.8014979,137.212391 89.4668936,137.614979 C90.6250213,139.214298 92.4486128,140.348528 94.9395064,141.01583 C97.4304,141.729089 99.9212936,142.083881 102.412187,142.083881 C105.881055,142.083881 109.017191,141.150026 111.820596,139.282315 C114.622162,137.412766 116.692085,134.655319 118.026689,131.008136 C119.361294,127.360953 120.028596,123.222945 120.028596,118.595949 C120.028596,113.570043 119.293277,109.275779 117.826315,105.718672 C116.401634,102.115609 114.28943,99.4464 111.486026,97.7110468 C108.769166,96.0013164 105.622233,95.0991871 102.412187,95.1098553 C100.276085,95.1098553 97.6087149,95.9995915 94.4045617,97.7790638 L88.5330383,100.714826 L88.5330383,97.7790638 L114.956732,62.5480851 L78.3911489,62.5480851 L78.3911489,99.1118298 C78.3911489,102.137668 79.0584511,104.628562 80.3930553,106.586349 C81.7276596,108.544136 83.7736851,109.522111 86.5329702,109.522111 C88.6653957,109.522111 90.7132596,108.810689 92.6710468,107.386009 C94.6414022,105.94912 96.3554277,104.190349 97.7410723,102.183626 C97.9193872,101.781038 98.1418213,101.492426 98.4083745,101.314111 C98.6481408,101.102407 98.9562108,100.98427 99.2760511,100.981379 C99.7650383,100.981379 100.342264,101.225872 101.011404,101.716698 C101.634587,102.426281 101.94526,103.249838 101.94526,104.183694 C101.868679,104.812627 101.756982,105.436785 101.610689,106.053243 C100.099609,109.433872 98.0076255,112.013004 95.338417,113.792477 C92.7398281,115.550305 89.670208,116.480804 86.5329702,116.461685 C78.613583,116.461685 73.1409702,114.904647 70.1169702,111.792409 C67.0929702,108.676494 65.5800511,104.450247 65.5800511,99.1136681 L65.5800511,62.5480851 L46.8955915,62.5480851 L46.8955915,55.7408681 L65.5800511,55.7408681 L65.5800511,40.2624 L61.3096851,35.9883574 L61.3096851,32.5213277 L73.720034,32.5213277 L78.3893106,34.9221447 L78.3893106,55.7408681 L126.699779,55.6085106 L131.505089,60.411983 L101.879081,90.0379915 C103.672625,89.3231223 105.560801,88.8735271 107.484051,88.7033872 C110.686366,88.7033872 114.28943,89.7273191 118.293243,91.7733447 C122.341174,93.7752511 125.455251,96.5345362 127.633634,100.045685 C129.813855,103.516391 131.214638,106.852902 131.837821,110.055217 C132.505123,113.25937 132.839694,116.105055 132.839694,118.595949 C132.839694,124.290996 131.637447,129.583455 129.23663,134.478843 C126.833974,139.370553 123.186791,143.017736 118.293243,145.420391 C113.399694,147.823047 108.105396,149.023455 102.412187,149.023455 Z" id="路径" fill="#FFFFFF" fill-rule="nonzero"></path>
                </g>
            </g>
        </g>
    </g>
</svg>